<svg width="12" height="12" viewBox="0 0 12 12" fill="none" xmlns="http://www.w3.org/2000/svg">
<path d="M11.9498 5.28857L10.0212 0.274286C10.0212 0.274286 10.0212 0.252857 10.0212 0.24L9.99547 0.197143C9.97496 0.168101 9.95202 0.14086 9.92689 0.115714L9.89261 0.0857143C9.85364 0.0562122 9.81025 0.0330683 9.76404 0.0171428H9.72975L9.62261 0H9.57118L2.28546 0.857143H2.25975C2.22226 0.862004 2.18596 0.87362 2.15261 0.891429L2.12261 0.921429C2.08073 0.948511 2.04317 0.98174 2.01118 1.02C1.98552 1.05224 1.96526 1.08842 1.95118 1.12714L0.0226068 6.14143C0.00141623 6.2142 0.00141623 6.29151 0.0226068 6.36429C0.0183804 6.39988 0.0183804 6.43584 0.0226068 6.47143C0.0609884 7.07263 0.317137 7.63923 0.743112 8.06521C1.16909 8.49118 1.7357 8.74733 2.33689 8.78571C2.94498 8.75757 3.52141 8.5065 3.95618 8.08043C4.39095 7.65435 4.65361 7.08311 4.69404 6.47571C4.69826 6.44013 4.69826 6.40416 4.69404 6.36857C4.71523 6.2958 4.71523 6.21849 4.69404 6.14571L2.97975 1.64571L5.55118 1.33714V11.1429H4.26546C4.1518 11.1429 4.04279 11.188 3.96242 11.2684C3.88205 11.3488 3.83689 11.4578 3.83689 11.5714C3.83689 11.6851 3.88205 11.7941 3.96242 11.8745C4.04279 11.9548 4.1518 12 4.26546 12H7.69404C7.8077 12 7.91671 11.9548 7.99708 11.8745C8.07746 11.7941 8.12261 11.6851 8.12261 11.5714C8.12261 11.4578 8.07746 11.3488 7.99708 11.2684C7.91671 11.188 7.8077 11.1429 7.69404 11.1429H6.40832V1.23857L8.97975 0.938571L7.30832 5.28857C7.28713 5.36135 7.28713 5.43865 7.30832 5.51143C7.3041 5.54702 7.3041 5.58298 7.30832 5.61857C7.3477 6.21901 7.60429 6.78458 8.03017 7.20967C8.45605 7.63476 9.0221 7.8903 9.62261 7.92857C10.2307 7.90043 10.8071 7.64936 11.2419 7.22329C11.6767 6.79721 11.9393 6.22597 11.9798 5.61857C11.984 5.58298 11.984 5.54702 11.9798 5.51143C11.9913 5.4358 11.9809 5.35844 11.9498 5.28857V5.28857ZM10.9769 5.14286H8.26832L9.62261 1.62L10.9769 5.14286ZM2.33689 2.47714L3.69118 6H0.982607L2.33689 2.47714ZM2.33689 7.92857C2.02294 7.91414 1.72099 7.80364 1.47188 7.61202C1.22277 7.42039 1.03852 7.15689 0.944035 6.85714H3.72975C3.63527 7.15689 3.45102 7.42039 3.20191 7.61202C2.9528 7.80364 2.65085 7.91414 2.33689 7.92857V7.92857ZM9.62261 7.07143C9.30865 7.057 9.00671 6.9465 8.7576 6.75487C8.50849 6.56325 8.32423 6.29975 8.22975 6H11.0155C10.921 6.29975 10.7367 6.56325 10.4876 6.75487C10.2385 6.9465 9.93656 7.057 9.62261 7.07143V7.07143Z" fill="#173334"/>
</svg>
